<svg width="109" height="40" viewBox="0 0 109 40" fill="none" xmlns="http://www.w3.org/2000/svg">
<g clip-path="url(#clip0)">
<path d="M13.1264 14.8257C12.8363 14.9725 12.4737 15.1193 12.0386 15.2661C11.6035 15.4128 11.1683 15.5596 10.7332 15.633C10.2981 15.7798 9.79042 15.8532 9.35529 15.9266C8.92016 16 8.48503 16.0734 8.12242 16.0734C6.88955 16.0734 5.72921 15.9266 4.78643 15.5596C3.84365 15.1927 2.82834 14.7523 2.17565 14.0917C1.45043 13.4312 0.942781 12.5505 0.580173 11.5963C0.217565 10.5688 0 9.3945 0 8.07339C0 6.6055 0.217565 5.3578 0.652695 4.40367C1.08782 3.37615 1.668 2.56881 2.46574 1.90826C3.19095 1.24771 4.06121 0.807339 5.00399 0.513761C5.87425 0.146789 6.88955 0 7.83233 0C8.77512 0 9.7179 0.0733945 10.5882 0.220183C11.4584 0.366972 12.1111 0.513761 12.6188 0.807339C12.6188 1.02752 12.6188 1.3211 12.6188 1.68807C12.6188 2.05505 12.5462 2.42202 12.5462 2.78899C12.4737 3.15596 12.4737 3.59633 12.4012 3.9633C12.3287 4.33028 12.2562 4.69725 12.1836 5.06422H11.3134L10.0805 1.68807C9.93546 1.61468 9.64538 1.54128 9.35529 1.54128C8.84764 1.46789 8.55755 1.46789 8.26746 1.46789C7.61477 1.46789 7.0346 1.54128 6.52695 1.83486C5.94677 2.05505 5.43912 2.42202 5.00399 2.93578C4.56886 3.44954 4.27878 4.11009 3.98869 4.99083C3.77112 5.79817 3.62608 6.82569 3.62608 8.07339C3.62608 9.02752 3.77112 9.90826 3.98869 10.7156C4.20625 11.5229 4.56886 12.1835 4.93147 12.7706C5.29408 13.3578 5.80173 13.7982 6.3819 14.0917C6.96208 14.3853 7.61477 14.6055 8.26746 14.6055C8.48503 14.6055 8.70259 14.6055 8.92016 14.5321C9.13772 14.5321 9.35529 14.4587 9.57285 14.3853C9.79042 14.3119 9.93546 14.2385 10.0805 14.1651C10.2255 14.0917 10.3706 14.0183 10.3706 13.945V9.76147C10.008 9.76147 9.64538 9.68807 9.28277 9.54128C8.92016 9.3945 8.63007 9.24771 8.33999 9.10092V8.22018H14.3593V9.10092C14.2142 9.24771 14.0692 9.3211 13.8516 9.46789C13.6341 9.61468 13.344 9.68807 13.0539 9.76147V14.8257H13.1264Z" fill="white"/>
<path d="M19.1457 9.3211H23.0618L21.6114 5.06422L21.1763 3.15596H21.1037L20.6686 5.13762L19.1457 9.3211ZM19.2182 15.8532H13.7791V15.0459C13.9966 14.8991 14.2867 14.7523 14.5043 14.6789C14.7944 14.5321 15.0119 14.4587 15.302 14.4587L21.0312 0H22.6267L28.1383 14.3119C28.4284 14.3853 28.7185 14.4587 29.0086 14.5321C29.2987 14.6789 29.5888 14.7523 29.8063 14.8991V15.7064H22.9168V14.8991C23.2069 14.7523 23.497 14.6055 23.787 14.5321C24.0771 14.3853 24.4397 14.3119 24.7298 14.2385L23.4244 10.7156H18.5655L17.2601 14.2385C17.9128 14.3119 18.5655 14.5321 19.1457 14.8991V15.8532H19.2182Z" fill="white"/>
<path d="M30.6768 0.293457H37.8564V1.17419C37.5663 1.32098 37.2037 1.46777 36.8411 1.61456C36.4785 1.76135 36.1159 1.83474 35.7533 1.83474V14.4586H39.9595L41.41 10.4953H42.2802C42.3527 10.8623 42.4253 11.2292 42.4253 11.6696C42.4978 12.11 42.4978 12.6237 42.5703 13.1375C42.5703 13.6513 42.6428 14.165 42.6428 14.6054C42.6428 15.1191 42.6428 15.5595 42.6428 15.9265H30.6768V15.0458C31.0394 14.899 31.3295 14.7522 31.6195 14.6054C31.9096 14.532 32.1997 14.4586 32.4898 14.3852V1.76135C31.7646 1.61456 31.1844 1.39437 30.6768 1.1008V0.293457Z" fill="white"/>
<path d="M43.5129 0.293457H50.6926V1.17419C50.4025 1.32098 50.0399 1.46777 49.6773 1.61456C49.3147 1.76135 48.9521 1.83474 48.5895 1.83474V14.4586H52.7957L54.2461 10.4953H55.1164C55.1889 10.8623 55.2614 11.2292 55.2614 11.6696C55.334 12.11 55.334 12.6237 55.4065 13.1375C55.4065 13.6513 55.479 14.165 55.479 14.6054C55.479 15.1191 55.479 15.5595 55.479 15.9265H43.5129V15.0458C43.8755 14.899 44.1656 14.7522 44.4557 14.6054C44.7458 14.532 45.0359 14.4586 45.326 14.3852V1.76135C44.6008 1.61456 44.0206 1.39437 43.5129 1.1008V0.293457Z" fill="white"/>
<path d="M67.8803 0.293457C67.8803 0.954008 67.8078 1.61456 67.7353 2.3485C67.6628 3.08245 67.5902 3.743 67.4452 4.33015H66.5749L65.5596 1.68795H61.4259V7.11915H64.1092L65.052 5.43107H65.7772C65.8497 6.16502 65.9222 6.97236 65.9222 7.85309C65.9222 8.73382 65.8497 9.54116 65.7772 10.3485H65.052L64.1092 8.58704H61.4259V14.3852H65.7047L66.865 11.5962H67.7353C67.8078 11.8898 67.8803 12.1834 67.8803 12.5503C67.9528 12.9173 67.9528 13.2843 68.0254 13.6513C68.0254 14.0182 68.0979 14.3852 68.0979 14.8256C68.0979 15.1925 68.0979 15.5595 68.0979 15.9265H56.2769V15.0458C56.4944 14.899 56.7845 14.7522 57.0746 14.6788C57.3647 14.532 57.7273 14.4586 58.0174 14.3852V1.76135C57.7273 1.68795 57.4372 1.61456 57.0746 1.54116C56.712 1.46777 56.5669 1.24759 56.2769 1.1008V0.293457H67.8803Z" fill="white"/>
<path d="M75.7852 1.54122C75.3501 1.54122 74.9875 1.61462 74.6974 1.68801V7.85315H76.0028C76.728 7.85315 77.3807 7.55957 77.8883 7.04581C78.396 6.53205 78.6861 5.72471 78.6861 4.62379C78.6861 4.11003 78.6135 3.59627 78.4685 3.2293C78.3235 2.86232 78.1059 2.49535 77.8158 2.27517C77.5257 2.05499 77.2356 1.8348 76.873 1.68801C76.5829 1.61462 76.1478 1.54122 75.7852 1.54122ZM74.6249 14.3119C74.9875 14.3853 75.2775 14.4587 75.4951 14.6054C75.7852 14.7522 76.0028 14.8256 76.2928 14.9724V15.8532H69.5483V14.9724C69.8384 14.8256 70.201 14.6788 70.4911 14.532C70.7812 14.4587 71.0713 14.3853 71.3614 14.3119V1.76141C70.6362 1.61462 70.056 1.39443 69.5483 1.10086V0.293518H71.869C72.1591 0.293518 72.5217 0.293518 72.8843 0.293518C73.2469 0.293518 73.6821 0.293518 74.0447 0.220123C74.4798 0.220123 74.8424 0.146729 75.2775 0.146729C75.7127 0.146729 76.0753 0.146729 76.5104 0.146729C77.3082 0.146729 78.0334 0.220123 78.7586 0.440307C79.4113 0.66049 79.9915 0.880673 80.4991 1.24765C81.0068 1.61462 81.3694 2.05499 81.6594 2.64214C81.9495 3.2293 82.0946 3.81645 82.0946 4.62379C82.0946 5.72471 81.8045 6.60544 81.2968 7.26599C80.7892 7.92654 80.064 8.44031 79.1937 8.80728C79.7739 9.76141 80.4266 10.7155 81.0793 11.6697C81.732 12.6238 82.4572 13.5779 83.1824 14.4587L84.2702 15.1926V15.9265H80.5716L79.6288 15.1926C78.9762 14.3853 78.3235 13.4311 77.8158 12.4036C77.3082 11.3027 76.873 10.2752 76.4379 9.24765H74.6249V14.3119Z" fill="white"/>
<path d="M91.9574 15.8531H85.1404V15.0458C85.7206 14.7522 86.3007 14.532 86.9534 14.3852V1.76135C86.6633 1.68795 86.3732 1.61456 86.0106 1.54116C85.7206 1.39437 85.4305 1.32098 85.1404 1.17419V0.293457H91.9574V1.17419C91.6673 1.32098 91.3772 1.46777 91.0872 1.61456C90.7971 1.76135 90.4345 1.83474 90.1444 1.83474V14.3852C90.4345 14.4586 90.7245 14.532 91.0872 14.6054C91.3772 14.6788 91.6673 14.8256 91.9574 14.9724V15.8531Z" fill="white"/>
<path d="M98.3395 9.3211H102.256L100.805 5.13762L100.37 3.22936H100.298L99.8624 5.13762L98.3395 9.3211ZM98.4845 15.8532H93.0454V15.0459C93.263 14.8991 93.5531 14.7523 93.7706 14.6789C94.0607 14.5321 94.2783 14.4587 94.5684 14.4587L100.225 0H101.821L107.332 14.3119C107.622 14.3853 107.912 14.4587 108.202 14.5321C108.493 14.6789 108.783 14.7523 109 14.8991V15.7064H102.111V14.8991C102.401 14.7523 102.691 14.6055 102.981 14.5321C103.271 14.3853 103.634 14.3119 103.924 14.2385L102.618 10.7156H97.7593L96.4539 14.2385C97.1066 14.3119 97.7593 14.5321 98.3395 14.8991V15.8532H98.4845Z" fill="white"/>
<path d="M50.9827 28.257C51.2003 28.257 51.4904 28.1102 51.708 27.89C51.9255 27.6698 52.1431 27.3762 52.3606 27.0826C52.5782 26.7891 52.7958 26.4221 52.9408 26.0551C53.0859 25.6881 53.2309 25.3946 53.3034 25.1744L53.7386 22.8992C53.5935 22.8258 53.521 22.7524 53.3759 22.7524C53.3034 22.7524 53.1584 22.7524 52.9408 22.7524C52.5057 22.7524 52.1431 22.8992 51.7805 23.1193C51.4179 23.3395 51.2003 23.7065 50.9102 24.0735C50.6926 24.4404 50.4751 24.8808 50.4026 25.3946C50.2575 25.9083 50.2575 26.3487 50.2575 26.8625C50.2575 27.3028 50.33 27.6698 50.4026 27.89C50.5476 28.1102 50.6926 28.257 50.9827 28.257ZM53.0859 26.2753C52.9408 26.5689 52.7958 26.9359 52.6507 27.2294C52.5057 27.523 52.2881 27.89 52.0706 28.1102C51.853 28.4037 51.6354 28.6239 51.3453 28.7707C51.0553 28.9175 50.7652 28.9909 50.4751 28.9909C49.5323 28.9909 49.0972 28.3303 49.0972 26.9359C49.0972 26.2753 49.1697 25.6881 49.3873 25.101C49.5323 24.5138 49.8224 24.0001 50.185 23.5597C50.5476 23.1193 50.9102 22.7524 51.4179 22.4588C51.9255 22.1652 52.4332 22.0184 53.0133 22.0184C53.2309 22.0184 53.4485 22.0184 53.521 22.0918C53.666 22.0918 53.8111 22.1652 53.9561 22.2386L54.3912 19.8166L53.4485 19.6698V19.3028C53.5935 19.2294 53.7386 19.2294 53.8836 19.156C54.0286 19.0826 54.1737 19.0826 54.3912 19.0092C54.5363 18.9359 54.7539 18.9359 54.8989 18.8625C55.0439 18.8625 55.2615 18.7891 55.4066 18.7891L55.6966 18.8625L53.8836 28.0368H54.8264V28.4037C54.6813 28.5505 54.4638 28.6973 54.1737 28.7707C53.9561 28.8441 53.666 28.9175 53.4485 28.9175C53.1584 28.9175 53.0133 28.8441 52.8683 28.7707C52.7233 28.6973 52.7232 28.5505 52.7232 28.4037C52.7232 28.257 52.7233 27.9634 52.7958 27.5964C52.9408 27.3028 53.0133 26.8625 53.0859 26.2753Z" fill="white"/>
<path d="M57.7998 19.9632C57.7998 19.743 57.8723 19.5228 58.0174 19.4494C58.1624 19.3026 58.3074 19.2292 58.5975 19.2292C58.8151 19.2292 59.0327 19.3026 59.1777 19.4494C59.3227 19.5962 59.3953 19.743 59.3953 19.9632C59.3953 20.1834 59.3227 20.3302 59.1777 20.477C59.0327 20.6237 58.8151 20.6971 58.5975 20.6971C58.38 20.6971 58.1624 20.6237 58.0174 20.477C57.8723 20.3302 57.7998 20.1834 57.7998 19.9632ZM56.712 22.899V22.532C56.857 22.4586 57.002 22.4586 57.1471 22.3852C57.2921 22.3118 57.5097 22.3118 57.6547 22.2384C57.7998 22.165 58.0173 22.165 58.1624 22.0916C58.3074 22.0916 58.4525 22.0182 58.5975 22.0182L58.8151 22.165L57.5822 28.11H58.525V28.477C58.3074 28.6237 58.0899 28.7705 57.8723 28.8439C57.6547 28.9173 57.3647 28.9907 57.1471 28.9907C56.857 28.9907 56.712 28.9173 56.5669 28.8439C56.4219 28.6971 56.4219 28.6237 56.4219 28.477C56.4219 28.3302 56.4219 28.11 56.4944 27.9632C56.4944 27.8164 56.5669 27.5962 56.5669 27.376L57.5097 23.0458L56.712 22.899Z" fill="white"/>
<path d="M33.0699 31.4864C32.9249 31.4864 32.7799 31.4864 32.6348 31.4864C32.5623 31.4864 32.4172 31.4864 32.3447 31.5598V35.5964C32.4172 35.5964 32.5623 35.6698 32.7073 35.6698C32.8524 35.6698 32.9974 35.6698 33.0699 35.6698C33.2875 35.6698 33.5051 35.5964 33.7226 35.5231C33.9402 35.4497 34.1578 35.3029 34.3028 35.1561C34.4479 35.0093 34.5929 34.7891 34.7379 34.4955C34.8105 34.202 34.883 33.9084 34.883 33.5414C34.883 32.8075 34.7379 32.2937 34.3753 32.0001C34.0852 31.6331 33.5776 31.4864 33.0699 31.4864ZM32.3447 39.1194C32.5623 39.1194 32.7799 39.1928 33.0699 39.2662C33.2875 39.3396 33.5051 39.413 33.7226 39.4864V40.0001H29.3713V39.4864C29.5164 39.413 29.7339 39.3396 29.879 39.2662C30.0966 39.1928 30.2416 39.1194 30.4592 39.1194V31.5598C30.2416 31.5598 30.0966 31.4864 29.879 31.413C29.6614 31.3396 29.5164 31.2662 29.3713 31.1928V30.679H31.0393C31.4019 30.679 31.7646 30.679 32.2722 30.6056C32.7073 30.6056 33.1425 30.5322 33.5051 30.5322C33.9402 30.5322 34.4479 30.6056 34.883 30.679C35.3181 30.7524 35.7532 30.8992 36.0433 31.1194C36.4059 31.3396 36.696 31.6331 36.9136 32.0001C37.1312 32.3671 37.2037 32.8075 37.2037 33.3946C37.2037 33.9084 37.1312 34.3487 36.9136 34.7891C36.696 35.1561 36.4059 35.5231 36.1158 35.7432C35.7532 35.9634 35.3906 36.1836 34.9555 36.3304C34.5204 36.4772 34.0127 36.4772 33.5776 36.4772H33.36C33.2875 36.4772 33.1425 36.4772 33.0699 36.4772C32.9249 36.4772 32.8524 36.4772 32.7799 36.4772C32.7073 36.4772 32.6348 36.4772 32.5623 36.4772V39.1194H32.3447Z" fill="white"/>
<path d="M41.9174 40.0001H37.7837V39.4863C38.1463 39.2661 38.5089 39.1927 38.8715 39.1193V31.5597C38.7265 31.5597 38.5089 31.4863 38.2913 31.4129C38.0738 31.3395 37.9287 31.2661 37.7837 31.1927V30.679H41.9174V31.1927C41.7724 31.2661 41.5548 31.3395 41.4098 31.4129C41.1922 31.4863 41.0472 31.5597 40.8296 31.5597V39.1193C40.9746 39.1193 41.1922 39.1927 41.4098 39.2661C41.6273 39.3395 41.7724 39.4129 41.9174 39.4863V40.0001Z" fill="white"/>
<path d="M50.04 30.679C50.04 31.0459 49.9674 31.4863 49.9674 31.9267C49.8949 32.367 49.8949 32.734 49.8224 33.101H49.3147L48.662 31.5597H46.1963V34.789H47.7918L48.372 33.7615H48.8071C48.8796 34.2019 48.8796 34.7157 48.8796 35.2294C48.8796 35.7432 48.8796 36.2569 48.8071 36.6973H48.372L47.7918 35.6698H46.1963V39.1193H48.7346L49.4598 37.4312H49.9674C49.9674 37.578 50.04 37.7982 50.04 38.0184C50.04 38.2386 50.1125 38.4588 50.1125 38.679C50.1125 38.8991 50.185 39.1193 50.185 39.3395C50.185 39.5597 50.185 39.7799 50.185 40.0001H43.0779V39.4863C43.2229 39.4129 43.368 39.3395 43.5855 39.2661C43.8031 39.1927 43.9481 39.1193 44.1657 39.1193V31.5597C44.0207 31.5597 43.8031 31.4863 43.5855 31.4129C43.368 31.3395 43.2229 31.2661 43.0779 31.1927V30.679H50.04Z" fill="white"/>
<path d="M57.4371 40.0001H52.9407V39.4863C53.0858 39.4129 53.3033 39.3395 53.5209 39.2661C53.7385 39.1927 53.956 39.1193 54.1736 39.1193V31.5597H52.6506L51.7804 33.8349H51.2727C51.2727 33.6881 51.2002 33.3946 51.2002 33.1744C51.2002 32.8808 51.1277 32.5872 51.1277 32.2936C51.1277 32.0001 51.0552 31.7065 51.0552 31.4129C51.0552 31.1193 51.0552 30.8991 51.0552 30.679H59.4677C59.4677 30.8991 59.4677 31.1193 59.4677 31.4129C59.4677 31.7065 59.3952 32.0001 59.3952 32.2936C59.3952 32.5872 59.3226 32.8808 59.3226 33.1744C59.3226 33.4679 59.2501 33.6881 59.2501 33.8349H58.7425L57.7272 31.5597H56.2042V39.1193C56.4218 39.1927 56.6393 39.1927 56.8569 39.2661C57.0745 39.3395 57.292 39.4129 57.4371 39.4863V40.0001Z" fill="white"/>
<path d="M63.819 31.4862C63.5289 31.4862 63.3113 31.4862 63.1663 31.5596V35.2293H63.964C64.3991 35.2293 64.8343 35.0825 65.1244 34.7156C65.4144 34.3486 65.632 33.9082 65.632 33.2477C65.632 32.9541 65.5595 32.6605 65.487 32.3669C65.4144 32.1468 65.2694 31.9266 65.1244 31.7798C64.9793 31.633 64.7618 31.4862 64.5442 31.4128C64.3266 31.4862 64.1091 31.4862 63.819 31.4862ZM63.1663 39.1192C63.3838 39.1926 63.5289 39.1926 63.6739 39.266C63.819 39.3394 63.964 39.4128 64.1091 39.4862V40H60.0479V39.4862C60.2654 39.4128 60.4105 39.266 60.628 39.266C60.7731 39.1926 60.9906 39.1926 61.1357 39.1192V31.5596C60.7005 31.4862 60.3379 31.3394 60.0479 31.1926V30.6789H61.4258C61.5708 30.6789 61.7884 30.6789 62.0059 30.6789C62.2235 30.6789 62.4411 30.6789 62.7311 30.6789C62.9487 30.6789 63.2388 30.6789 63.4564 30.6055C63.7465 30.6055 63.964 30.6055 64.1816 30.6055C64.6892 30.6055 65.1244 30.6789 65.487 30.7523C65.9221 30.899 66.2122 31.0458 66.5748 31.266C66.8649 31.4862 67.0824 31.7798 67.2275 32.0734C67.3725 32.4403 67.4451 32.8073 67.4451 33.2477C67.4451 33.9082 67.3 34.422 67.0099 34.8623C66.7198 35.3027 66.2847 35.5963 65.7771 35.8165C66.1397 36.4036 66.5023 36.9174 66.8649 37.5045C67.2275 38.0917 67.6626 38.6055 68.0977 39.1926L68.7504 39.633V40.0734H66.5748L65.9946 39.633C65.5595 39.1192 65.1969 38.6055 64.9068 37.9449C64.6167 37.2844 64.3266 36.6972 64.1091 36.0367H63.0212V39.1192H63.1663Z" fill="white"/>
<path d="M72.5215 36.1836H74.8422L73.972 33.6148L73.7544 32.4405L73.4643 33.6148L72.5215 36.1836ZM72.5215 40.0001H69.2581V39.4864C69.4031 39.413 69.5481 39.3396 69.6932 39.2662C69.8382 39.1928 69.9833 39.1194 70.2008 39.1194L73.6094 30.5322H74.5521L77.8881 39.1194C78.0332 39.1194 78.2507 39.1928 78.3958 39.2662C78.5408 39.3396 78.7584 39.413 78.8309 39.4864V40.0001H74.6972V39.4864C74.8422 39.413 75.0598 39.3396 75.2048 39.2662C75.4224 39.1928 75.5674 39.1194 75.785 39.1194L74.9873 36.9909H72.0864L71.2887 39.1194C71.7238 39.1928 72.0864 39.2662 72.449 39.4864V40.0001H72.5215Z" fill="white"/>
</g>
<defs>
<clipPath id="clip0">
<path d="M0 0H109V40H0V0Z" fill="white"/>
</clipPath>
</defs>
</svg>
